<?xml version="1.0" standalone="no"?>
<!DOCTYPE svg PUBLIC "-//W3C//DTD SVG 20010904//EN"
 "http://www.w3.org/TR/2001/REC-SVG-20010904/DTD/svg10.dtd">
<svg version="1.0" xmlns="http://www.w3.org/2000/svg"
 width="457.000000pt" height="457.000000pt" viewBox="0 0 457.000000 457.000000"
 preserveAspectRatio="xMidYMid meet">
<metadata>
Created by potrace 1.14, written by Peter Selinger 2001-2017
</metadata>
<g transform="translate(0.000000,457.000000) scale(0.100000,-0.100000)"
fill="#000000" stroke="none">
<path d="M2195 4533 c-51 -6 -185 -45 -294 -85 -209 -77 -365 -237 -426 -438
-10 -34 -19 -109 -22 -197 -5 -118 -3 -153 12 -212 11 -39 16 -73 13 -76 -2
-3 -19 2 -37 11 -29 14 -34 14 -56 0 -13 -9 -29 -25 -35 -37 -20 -37 -23 -149
-6 -219 8 -36 20 -96 26 -135 15 -94 51 -159 105 -185 49 -24 83 -25 112 -5
16 11 23 12 31 2 18 -23 55 -162 58 -217 2 -30 4 -66 6 -79 2 -19 -3 -26 -27
-35 -41 -15 -129 -82 -195 -150 -30 -31 -61 -56 -70 -56 -8 0 -44 -14 -78 -30
-35 -17 -70 -30 -77 -30 -7 0 -46 -14 -86 -31 -41 -18 -137 -47 -214 -66 -209
-52 -325 -111 -491 -248 -120 -99 -157 -135 -214 -213 -33 -45 -55 -64 -84
-74 -44 -15 -39 -7 -98 -148 l-43 -105 -3 -738 -2 -737 824 0 823 0 -13 58
c-20 83 -17 223 5 310 44 167 125 259 232 262 79 2 222 -10 233 -20 11 -8 56
-3 56 6 0 12 -51 83 -62 86 -7 3 4 13 25 23 36 17 38 20 32 52 -7 37 7 44 37
16 17 -15 18 -15 18 5 0 12 5 22 10 22 13 0 13 37 0 45 -15 9 -12 35 5 41 10
4 33 -12 64 -45 57 -60 90 -72 59 -21 -10 16 -10 24 -1 40 15 23 8 47 -24 79
-38 39 -21 60 20 24 18 -17 19 -17 32 0 15 21 25 22 25 2 0 -8 -7 -15 -15 -15
-16 0 -20 -27 -6 -49 12 -19 39 -7 44 21 3 16 5 12 6 -13 1 -24 9 -43 26 -59
14 -13 25 -29 25 -36 0 -30 24 -62 64 -86 36 -21 44 -23 52 -11 5 8 17 15 28
16 15 2 19 -6 22 -38 4 -37 3 -39 -11 -21 -16 21 -21 10 -6 -13 5 -8 16 -11
26 -7 12 4 18 0 22 -14 14 -51 38 8 27 66 -10 54 11 40 45 -30 30 -63 94 -136
119 -136 6 0 12 -11 12 -24 0 -20 6 -24 39 -30 60 -9 85 -46 106 -158 10 -51
22 -103 26 -116 7 -19 5 -24 -19 -32 -62 -23 -67 -29 -19 -23 26 3 47 2 47 -3
0 -6 14 -18 30 -27 38 -23 40 -60 5 -83 -13 -9 -56 -20 -95 -25 -60 -7 -110
-22 -110 -33 0 -1 72 -3 160 -4 88 -1 160 2 160 7 0 16 44 20 60 6 14 -13 86
-15 472 -15 l456 0 18 42 c23 55 23 214 -1 260 -20 40 -19 60 3 89 37 49 79
125 84 154 16 82 -30 201 -128 332 -31 42 -62 97 -74 135 -12 35 -28 73 -36
85 -8 12 -14 37 -14 55 0 31 -18 92 -69 228 -11 30 -20 72 -21 93 0 25 -8 46
-23 62 -12 14 -35 55 -51 92 -52 123 -119 213 -235 317 -19 17 -67 63 -105
101 -69 68 -178 135 -221 135 -10 0 -41 13 -69 29 -28 16 -96 44 -150 62 -55
18 -117 46 -140 64 -23 17 -62 41 -88 54 -32 15 -53 34 -66 59 -18 36 -18 37
2 84 16 38 18 54 10 85 -10 37 -9 39 51 103 66 72 99 130 119 205 11 46 15 50
46 53 18 2 48 15 66 28 26 20 35 37 48 92 45 198 54 385 20 443 -20 32 -23 34
-70 32 l-50 -2 2 77 c3 151 -42 365 -103 487 -66 130 -223 264 -375 319 -204
74 -286 91 -383 79z m74 -574 c45 -1 76 3 80 10 12 19 121 -4 136 -28 3 -6 16
-11 28 -11 22 1 22 1 3 15 -19 15 -19 15 2 15 11 0 27 -9 35 -20 8 -11 17 -17
20 -13 4 3 7 -10 7 -29 0 -24 8 -44 25 -62 16 -17 24 -35 20 -46 -4 -12 1 -19
16 -23 17 -4 19 -10 14 -29 -10 -29 -24 -39 -51 -32 -12 3 -26 -1 -33 -10 -7
-9 -28 -18 -47 -22 -47 -9 -71 -46 -79 -125 -10 -92 -23 -136 -43 -144 -23
-10 -84 -6 -100 8 -24 19 -38 71 -37 132 1 55 -1 62 -33 93 -26 27 -39 33 -60
29 -16 -3 -35 1 -46 9 -15 10 -36 12 -85 7 -56 -5 -64 -4 -55 8 6 8 12 21 13
29 1 8 7 56 14 105 11 81 15 93 44 121 31 30 35 31 85 23 29 -5 86 -9 127 -10z
m-268 -370 c49 -17 62 -29 48 -45 -13 -16 -149 -20 -149 -5 0 11 47 61 58 61
5 0 24 -5 43 -11z m757 -6 c-4 -20 -84 -41 -114 -29 -16 6 -15 9 11 26 39 26
108 27 103 3z m-861 -79 c-9 -9 -28 6 -21 18 4 6 10 6 17 -1 6 -6 8 -13 4 -17z
m698 -70 c0 -12 -8 -20 -22 -22 -25 -4 -31 16 -11 36 17 17 33 10 33 -14z
m-465 1 c16 -19 4 -35 -26 -35 -17 0 -24 6 -24 18 0 34 28 43 50 17z m638 3
c-6 -18 -28 -21 -28 -4 0 9 7 16 16 16 9 0 14 -5 12 -12z m-10 -90 c3 -14 -3
-18 -27 -18 -29 0 -41 17 -24 34 13 13 48 1 51 -16z m90 -57 c7 -15 10 -36 6
-45 -3 -9 -1 -16 5 -16 21 0 61 -74 61 -112 0 -31 -8 -46 -44 -83 l-44 -44
-59 55 c-64 60 -92 72 -129 55 -46 -20 -55 -15 -48 28 4 22 2 53 -4 70 -8 24
-7 38 5 63 9 18 18 35 20 37 2 3 47 6 99 7 53 1 98 5 101 8 11 11 18 6 31 -23z
m-724 -13 c14 -27 14 -34 3 -52 -8 -12 -17 -37 -21 -57 -6 -32 -9 -36 -31 -31
-26 4 -64 -21 -145 -98 -52 -50 -103 -50 -114 -2 -23 96 -24 106 -8 131 9 14
23 31 31 37 9 7 10 13 4 17 -13 8 -4 59 11 69 6 4 57 6 113 3 62 -3 104 -1
108 5 12 19 34 10 49 -22z m341 -22 c1 -20 12 -39 38 -63 21 -18 35 -38 32
-43 -9 -15 -38 -12 -63 6 -18 13 -31 14 -70 5 -29 -6 -51 -6 -56 0 -14 13 -40
11 -72 -6 -41 -21 -64 -19 -64 5 0 11 4 20 8 20 5 0 29 20 55 44 29 28 59 47
79 50 74 12 84 13 98 12 9 -1 15 -12 15 -30z m-280 -172 c24 -9 43 -7 73 8 18
10 28 9 51 -5 39 -23 84 -22 106 3 24 26 43 25 54 -3 5 -13 16 -29 26 -37 10
-8 14 -22 11 -36 -3 -12 0 -27 8 -33 19 -16 9 -49 -17 -57 -63 -20 -277 -5
-277 19 0 14 55 47 78 47 9 0 -2 9 -25 20 -24 10 -43 26 -43 34 0 23 -70 34
-82 12 -7 -13 -13 -14 -29 -5 -12 6 -18 17 -15 24 3 8 1 17 -5 20 -23 15 5 23
34 10 18 -7 41 -17 52 -21z m-142 -97 c-3 -5 -10 -4 -15 1 -6 6 -7 16 -3 22 6
9 9 9 16 -1 4 -7 5 -17 2 -22z m795 -84 c6 -41 -91 -162 -121 -150 -18 7 -88
-56 -110 -98 -9 -16 -29 -45 -45 -64 -28 -33 -33 -34 -109 -39 -104 -6 -220
13 -236 39 -8 12 -23 19 -44 19 -23 0 -33 5 -33 15 0 8 -5 15 -11 15 -6 0 -8
7 -5 16 4 9 2 22 -3 28 -13 16 -17 49 -8 64 12 18 -28 16 -43 -3 -14 -17 -66
-20 -75 -5 -3 5 -21 17 -40 25 -57 28 -108 129 -75 150 6 4 32 -16 59 -44 46
-48 48 -49 64 -30 33 38 94 13 85 -35 -4 -21 -2 -26 9 -22 16 7 123 -20 137
-34 5 -5 26 -10 45 -10 28 0 32 -3 21 -10 -10 -7 13 -9 74 -5 49 3 94 9 100
13 6 5 37 15 68 22 63 14 122 63 116 96 -3 16 2 19 32 16 28 -2 45 4 75 28 43
34 68 36 73 3z m-331 -26 c42 -3 44 -17 6 -42 -72 -47 -71 -46 -29 -40 29 5
37 3 34 -7 -3 -7 -21 -14 -41 -16 -24 -2 -37 -8 -37 -18 0 -8 -4 -14 -10 -14
-15 0 -12 48 3 53 6 2 -26 7 -73 11 -82 8 -160 35 -160 56 0 6 15 10 33 11 17
0 40 3 49 7 15 6 118 6 225 -1z m-267 -81 c21 -8 28 -16 21 -21 -11 -6 -81 20
-81 30 0 9 28 5 60 -9z m1052 -781 c3 -15 0 -29 -7 -33 -7 -4 -14 -16 -16 -26
-5 -23 -29 -34 -29 -14 0 8 9 24 21 36 13 15 18 29 14 42 -4 11 -2 20 3 20 5
0 12 -11 14 -25z m318 -153 c0 -5 -6 -16 -13 -27 -10 -13 -16 -15 -21 -6 -4 6
-2 18 4 26 13 16 30 20 30 7z m-10 -84 c0 -43 -23 -178 -31 -178 -9 0 -4 94 5
109 4 6 2 20 -4 31 -8 14 -7 25 2 40 17 26 28 25 28 -2z m-1206 -126 c-16 -34
-34 -42 -34 -16 0 11 -6 14 -20 9 -25 -8 -25 0 -1 24 18 18 20 18 26 3 6 -14
8 -13 16 7 6 16 13 21 19 15 7 -7 5 -21 -6 -42z m1146 28 c0 -5 -5 -10 -11
-10 -5 0 -7 5 -4 10 3 6 8 10 11 10 2 0 4 -4 4 -10z m-340 -95 c0 -28 -15 -34
-24 -9 -10 25 -7 34 9 34 9 0 15 -9 15 -25z m-2450 -45 c0 -5 -2 -10 -4 -10
-3 0 -8 5 -11 10 -3 6 -1 10 4 10 6 0 11 -4 11 -10z m508 -20 c-2 -6 -8 -6
-18 0 -13 9 -13 11 0 20 15 10 25 0 18 -20z m1037 -20 c3 -5 1 -10 -4 -10 -6
0 -11 5 -11 10 0 6 2 10 4 10 3 0 8 -4 11 -10z m-1049 -37 c-3 -8 -6 -21 -6
-29 0 -8 -4 -14 -9 -14 -11 0 -24 48 -16 60 9 15 37 -1 31 -17z m-676 -83 c8
-5 11 -12 8 -16 -10 -9 -38 3 -38 16 0 12 10 13 30 0z m841 -48 c-7 -13 -6
-27 5 -47 10 -19 11 -32 4 -39 -7 -7 -10 -3 -10 11 0 12 -4 24 -9 27 -17 11
-19 58 -2 78 13 15 17 16 19 4 2 -8 -1 -23 -7 -34z m1009 18 c0 -5 -4 -10 -9
-10 -6 0 -13 5 -16 10 -3 6 1 10 9 10 9 0 16 -4 16 -10z m-80 -10 c-20 -13
-33 -13 -25 0 3 6 14 10 23 10 15 0 15 -2 2 -10z m-1660 -41 c0 -18 -24 -21
-37 -4 -20 28 -16 36 12 23 14 -6 25 -15 25 -19z m726 -95 c-5 -20 -3 -24 11
-22 10 2 19 -4 21 -14 3 -15 -4 -18 -38 -18 -25 0 -39 4 -35 10 4 6 11 7 17 4
8 -5 9 1 5 16 -3 13 -1 30 5 37 16 20 21 16 14 -13z m1804 -54 c0 -16 -4 -30
-9 -30 -12 0 -24 37 -16 50 12 20 25 10 25 -20z m-880 -76 c0 -2 -7 -4 -15 -4
-8 0 -15 4 -15 10 0 5 7 7 15 4 8 -4 15 -8 15 -10z m847 -24 c0 -16 -7 -32
-15 -35 -11 -4 -13 0 -8 17 3 13 6 29 6 36 0 6 4 12 8 12 5 0 9 -13 9 -30z
m827 -27 c17 -49 26 -67 48 -103 10 -15 10 -22 1 -31 -9 -9 -15 -3 -27 25 -8
20 -22 39 -31 42 -18 7 -20 31 -2 37 9 3 8 12 -5 35 -20 34 -22 42 -9 42 4 0
16 -21 25 -47z m-2884 2 c0 -6 -9 -18 -20 -28 -20 -16 -20 -16 -20 23 0 38 1
39 20 28 11 -7 20 -17 20 -23z m-820 15 c0 -5 -5 -10 -11 -10 -5 0 -7 5 -4 10
3 6 8 10 11 10 2 0 4 -4 4 -10z m3468 -49 c-2 -14 -9 -25 -15 -23 -7 1 -13 -8
-13 -20 0 -17 -3 -19 -11 -11 -9 9 -9 19 0 41 7 16 11 33 10 38 -4 21 2 26 17
14 8 -8 14 -25 12 -39z m-2558 0 c-6 -12 -15 -19 -21 -16 -5 4 -8 9 -6 13 2 4
7 16 11 26 5 14 10 16 17 9 8 -8 7 -17 -1 -32z m417 33 c-3 -3 -12 -4 -19 -1
-8 3 -5 6 6 6 11 1 17 -2 13 -5z m-26 -114 c-4 -20 -10 -30 -14 -23 -9 15 3
77 14 66 4 -4 4 -24 0 -43z m-521 31 c0 -5 -6 -14 -14 -20 -16 -13 -32 2 -21
19 8 12 35 13 35 1z m144 -7 c5 -13 2 -15 -13 -11 -17 4 -21 -1 -24 -32 -3
-32 -4 -30 -5 12 -2 40 1 47 17 47 10 0 22 -7 25 -16z m2551 -14 c3 -5 1 -10
-4 -10 -6 0 -11 5 -11 10 0 6 2 10 4 10 3 0 8 -4 11 -10z m-2530 -20 c3 -5 1
-10 -4 -10 -6 0 -11 5 -11 10 0 6 2 10 4 10 3 0 8 -4 11 -10z m2813 -64 c6
-13 8 -27 5 -30 -7 -7 -32 24 -33 42 0 20 16 14 28 -12z m-2535 -26 c-6 -23
-19 -26 -26 -6 -6 15 12 38 24 31 4 -3 5 -14 2 -25z m1587 21 c0 -6 -4 -13
-10 -16 -5 -3 -10 1 -10 9 0 9 5 16 10 16 6 0 10 -4 10 -9z m-1820 -37 c0 -21
-4 -33 -10 -29 -5 3 -10 19 -10 36 0 16 5 29 10 29 6 0 10 -16 10 -36z m2745
-3 c3 -5 1 -12 -5 -16 -5 -3 -10 1 -10 9 0 18 6 21 15 7z m-955 -46 c0 -8 -4
-15 -10 -15 -5 0 -10 7 -10 15 0 8 5 15 10 15 6 0 10 -7 10 -15z m-14 -47 c-3
-7 -9 -21 -12 -30 -6 -18 -24 -25 -24 -10 1 25 14 52 27 52 8 0 12 -6 9 -12z
m-1976 -38 c0 -16 -2 -30 -4 -30 -2 0 -6 14 -8 30 -3 17 -1 30 4 30 4 0 8 -13
8 -30z m387 -12 c-3 -8 -6 -5 -6 6 -1 11 2 17 5 13 3 -3 4 -12 1 -19z m-364
-84 c-25 -18 -33 -17 -33 5 0 14 6 17 25 13 24 -4 24 -5 8 -18z m2947 16 c13
-8 12 -13 -7 -32 l-23 -22 0 32 c0 34 5 38 30 22z m-2617 -35 c4 -8 2 -17 -3
-20 -6 -4 -10 3 -10 14 0 25 6 27 13 6z m-253 -45 c0 -5 -5 -10 -11 -10 -5 0
-7 5 -4 10 3 6 8 10 11 10 2 0 4 -4 4 -10z m-507 -7 c3 -5 8 -32 12 -61 6 -45
5 -51 -9 -46 -19 7 -41 76 -33 98 7 17 23 21 30 9z m3117 -33 c0 -10 -4 -22
-10 -25 -6 -4 -10 7 -10 25 0 18 4 29 10 25 6 -3 10 -15 10 -25z m-3690 -135
c7 -9 8 -15 2 -15 -5 0 -12 7 -16 15 -3 8 -4 15 -2 15 2 0 9 -7 16 -15z m3780
-6 c0 -11 -4 -18 -10 -14 -5 3 -7 12 -3 20 7 21 13 19 13 -6z m270 -18 c0 -12
-20 -25 -27 -18 -7 7 6 27 18 27 5 0 9 -4 9 -9z m-62 -79 c2 -7 -3 -12 -12
-12 -9 0 -16 7 -16 16 0 17 22 14 28 -4z"/>
<path d="M2560 3820 c0 -5 7 -10 15 -10 8 0 15 5 15 10 0 6 -7 10 -15 10 -8 0
-15 -4 -15 -10z"/>
<path d="M2378 2983 c6 -2 18 -2 25 0 6 3 1 5 -13 5 -14 0 -19 -2 -12 -5z"/>
<path d="M2692 550 c0 -14 2 -19 5 -12 2 6 2 18 0 25 -3 6 -5 1 -5 -13z"/>
<path d="M2120 484 c0 -11 8 -28 18 -37 39 -35 44 -12 7 30 -23 26 -24 26 -25
7z"/>
<path d="M2125 369 c-9 -63 0 -73 31 -34 30 37 30 46 0 67 l-24 18 -7 -51z"/>
<path d="M2890 160 c0 -13 40 -13 60 0 11 7 5 10 -22 10 -21 0 -38 -4 -38 -10z"/>
<path d="M2840 151 c0 -6 -13 -18 -30 -27 -21 -13 -26 -20 -17 -26 21 -13 32
-9 50 21 20 33 21 41 7 41 -5 0 -10 -4 -10 -9z"/>
<path d="M2812 38 c-23 -23 -13 -38 25 -38 30 0 35 2 23 13 -8 6 -19 18 -25
25 -8 10 -13 10 -23 0z"/>
</g>
</svg>
