<?xml version="1.0" standalone="no"?>
<!DOCTYPE svg PUBLIC "-//W3C//DTD SVG 20010904//EN"
 "http://www.w3.org/TR/2001/REC-SVG-20010904/DTD/svg10.dtd">
<svg version="1.0" xmlns="http://www.w3.org/2000/svg"
 width="455.000000pt" height="455.000000pt" viewBox="0 0 455.000000 455.000000"
 preserveAspectRatio="xMidYMid meet">
<metadata>
Created by potrace 1.14, written by Peter Selinger 2001-2017
</metadata>
<g transform="translate(0.000000,455.000000) scale(0.100000,-0.100000)"
fill="#000000" stroke="none">
<path d="M2099 4546 c-2 -2 -33 -7 -69 -10 -77 -8 -159 -21 -255 -42 -74 -15
-293 -82 -310 -94 -5 -3 -32 -15 -60 -25 -27 -10 -94 -40 -149 -67 -444 -222
-794 -574 -1016 -1023 -84 -169 -121 -268 -166 -444 -37 -144 -39 -154 -59
-300 -12 -96 -13 -469 0 -541 3 -19 13 -75 21 -125 32 -185 109 -420 194 -595
29 -61 42 -84 99 -185 96 -168 315 -424 471 -551 19 -16 37 -31 40 -34 16 -19
140 -107 221 -158 104 -65 265 -149 344 -177 28 -10 55 -22 60 -25 39 -28 347
-108 475 -125 25 -3 61 -8 80 -11 19 -4 121 -7 225 -9 394 -6 722 71 1075 251
106 54 265 153 309 193 13 11 27 21 30 21 3 0 20 12 36 26 47 40 167 148 179
160 207 216 323 378 437 609 99 202 176 431 204 615 4 25 9 53 10 62 27 140
27 525 1 664 -2 11 -7 39 -11 64 -36 233 -158 557 -294 783 -91 151 -246 345
-364 456 -28 25 -57 53 -66 62 -13 13 -142 116 -196 157 -222 167 -643 344
-920 386 -66 10 -98 16 -130 22 -32 6 -441 15 -446 10z"/>
</g>
</svg>
